<svg xmlns="http://www.w3.org/2000/svg" width="192" height="192" viewBox="0 0 192 192">
  <defs>
    <linearGradient id="bg" x1="0" y1="0" x2="1" y2="1">
      <stop offset="0%" stop-color="#BE185D"/>
      <stop offset="100%" stop-color="#830F3F"/>
    </linearGradient>
  </defs>
  <rect width="192" height="192" rx="38" fill="url(#bg)"/>
  <g transform="translate(96,88) rotate(-15)">
    <rect x="-32" y="-18" width="64" height="36" rx="4" fill="#F5E6CC"/>
    <rect x="-30" y="-16.5" width="60" height="33" rx="3" fill="#FFFDD0"/>
    <text x="0" y="5" text-anchor="middle" fill="#BE185D" font-family="system-ui, sans-serif" font-size="18" font-weight="bold">₹</text>
    <path d="M-14-16.5Q0-3-14 16.5" stroke="#D4B896" stroke-width="0.8" fill="none"/>
  </g>
  <g transform="translate(60,52) rotate(20)">
    <rect x="-23" y="-13" width="46" height="26" rx="3" fill="#F5E6CC"/>
    <rect x="-21.5" y="-12" width="43" height="24" rx="2.5" fill="#FFFDD0"/>
    <text x="0" y="3" text-anchor="middle" fill="#BE185D" font-family="system-ui, sans-serif" font-size="12" font-weight="bold">₹</text>
  </g>
  <g transform="translate(135,58) rotate(-25)">
    <rect x="-21" y="-12" width="42" height="24" rx="3" fill="#F5E6CC"/>
    <rect x="-19.5" y="-11" width="39" height="22" rx="2" fill="#FFFDD0"/>
    <text x="0" y="3" text-anchor="middle" fill="#BE185D" font-family="system-ui, sans-serif" font-size="11" font-weight="bold">₹</text>
  </g>
  <g stroke="#F5E6CC" stroke-linecap="round" fill="none" opacity="0.35">
    <path d="M96 158 Q98 148 96 140" stroke-width="2"/>
    <path d="M60 108 Q58 100 60 94" stroke-width="1.5"/>
    <path d="M135 110 Q137 102 135 96" stroke-width="1.5"/>
  </g>
  <g fill="#F5E6CC" opacity="0.5">
    <circle cx="52" cy="78" r="1.5"/>
    <circle cx="142" cy="82" r="1.5"/>
    <circle cx="108" cy="44" r="1.2"/>
    <circle cx="80" cy="42" r="1.2"/>
  </g>
</svg>
