<svg xmlns="http://www.w3.org/2000/svg" width="512" height="512" viewBox="0 0 512 512">
  <defs>
    <linearGradient id="bg" x1="0" y1="0" x2="1" y2="1">
      <stop offset="0%" stop-color="#BE185D"/>
      <stop offset="100%" stop-color="#830F3F"/>
    </linearGradient>
  </defs>
  <rect width="512" height="512" rx="102" fill="url(#bg)"/>
  <g transform="translate(260,240) rotate(-15)">
    <rect x="-90" y="-50" width="180" height="100" rx="10" fill="#F5E6CC"/>
    <rect x="-84" y="-46" width="168" height="92" rx="8" fill="#FFFDD0"/>
    <text x="0" y="12" text-anchor="middle" fill="#BE185D" font-family="system-ui, sans-serif" font-size="50" font-weight="bold">₹</text>
    <path d="M-38-46Q0-8-38 46" stroke="#D4B896" stroke-width="2" fill="none"/>
  </g>
  <g transform="translate(160,130) rotate(22)">
    <rect x="-65" y="-37" width="130" height="74" rx="8" fill="#F5E6CC"/>
    <rect x="-60" y="-33" width="120" height="66" rx="6" fill="#FFFDD0"/>
    <text x="0" y="8" text-anchor="middle" fill="#BE185D" font-family="system-ui, sans-serif" font-size="36" font-weight="bold">₹</text>
    <path d="M-28-33Q0-6-28 33" stroke="#D4B896" stroke-width="1.5" fill="none"/>
  </g>
  <g transform="translate(360,150) rotate(-28)">
    <rect x="-60" y="-34" width="120" height="68" rx="8" fill="#F5E6CC"/>
    <rect x="-56" y="-30" width="112" height="60" rx="6" fill="#FFFDD0"/>
    <text x="0" y="7" text-anchor="middle" fill="#BE185D" font-family="system-ui, sans-serif" font-size="32" font-weight="bold">₹</text>
    <path d="M-26-30Q0-5-26 30" stroke="#D4B896" stroke-width="1.5" fill="none"/>
  </g>
  <g transform="translate(255,95) rotate(8)">
    <rect x="-45" y="-25" width="90" height="50" rx="6" fill="#F5E6CC"/>
    <rect x="-42" y="-22" width="84" height="44" rx="4" fill="#FFFDD0"/>
    <text x="0" y="5" text-anchor="middle" fill="#BE185D" font-family="system-ui, sans-serif" font-size="22" font-weight="bold">₹</text>
  </g>
  <g stroke="#F5E6CC" stroke-linecap="round" fill="none" opacity="0.35">
    <path d="M260 430 Q265 390 260 370" stroke-width="4"/>
    <path d="M160 300 Q155 280 160 260" stroke-width="3"/>
    <path d="M370 320 Q375 300 370 280" stroke-width="3"/>
  </g>
  <g fill="#F5E6CC" opacity="0.5">
    <circle cx="140" cy="200" r="4"/>
    <circle cx="380" cy="220" r="3.5"/>
    <circle cx="300" cy="100" r="3"/>
    <circle cx="210" cy="90" r="3.5"/>
    <circle cx="400" cy="120" r="3"/>
  </g>
</svg>
